<svg width="18" height="9" viewBox="0 0 18 9" fill="none" xmlns="http://www.w3.org/2000/svg">
<path d="M9.02484 6.0777L15.8298 0.844889C16.0731 0.667788 16.3966 0.570664 16.7316 0.574183C17.0665 0.577701 17.3865 0.681584 17.6233 0.863729C17.8602 1.04587 17.9953 1.2919 17.9999 1.54947C18.0045 1.80704 17.8782 2.05582 17.6478 2.24287L9.93384 8.17467C9.6927 8.35996 9.36574 8.46405 9.02484 8.46405C8.68394 8.46405 8.35698 8.35996 8.11584 8.17467L0.40184 2.24287C0.277059 2.15202 0.177221 2.04287 0.108223 1.92185C0.0392252 1.80083 0.00246714 1.67041 0.000119984 1.53829C-0.00222718 1.40616 0.0298842 1.27502 0.0945573 1.1526C0.159231 1.03018 0.255154 0.918962 0.376661 0.825528C0.498167 0.732093 0.642793 0.658332 0.801995 0.608601C0.961197 0.558869 1.13174 0.534176 1.30357 0.535981C1.47539 0.537786 1.64499 0.566052 1.80237 0.619109C1.95975 0.672166 2.1017 0.748938 2.21984 0.844889L9.02484 6.0777Z" fill="#999999"/>
</svg>
